<svg width="26" height="18" viewBox="0 0 26 18" fill="none" xmlns="http://www.w3.org/2000/svg">
    <path d="M8 10C11.9973 10 15.5 11.5424 15.5 14.9286C15.5 16.7035 14.8109 17.5 13.3529 17.5H2.64706C1.18907 17.5 0.5 16.7035 0.5 14.9286C0.5 11.5424 4.00271 10 8 10ZM18.5 10C22.4973 10 26 11.5424 26 14.9286C26 16.7035 25.3109 17.5 23.8529 17.5H18C17.4477 17.5 17 17.0523 17 16.5C17 15.9477 17.4477 15.5 18 15.5L23.9128 15.5003C23.9298 15.5005 23.9439 15.5009 23.9554 15.5017L23.968 15.503L23.9704 15.4882C23.9809 15.407 23.9945 15.2672 23.9987 15.0606L24 14.9286C24 13.0954 21.5125 12 18.5 12C18.0723 12 17.6018 12.03 17.1302 12.0909C16.5825 12.1615 16.0812 11.7748 16.0105 11.227C15.9398 10.6793 16.3266 10.178 16.8743 10.1073C17.431 10.0355 17.987 10 18.5 10ZM8 12C4.98749 12 2.5 13.0954 2.5 14.9286C2.5 15.2089 2.51695 15.3908 2.52958 15.4882L2.531 15.503L2.54456 15.5017L2.56385 15.5008L13.4288 15.5005C13.4389 15.5008 13.4477 15.5012 13.4554 15.5017L13.468 15.503L13.4704 15.4882C13.483 15.3908 13.5 15.2089 13.5 14.9286C13.5 13.0954 11.0125 12 8 12ZM18.5 0C20.8479 0 22.75 1.90209 22.75 4.25C22.75 6.59791 20.8479 8.5 18.5 8.5C16.1521 8.5 14.25 6.59791 14.25 4.25C14.25 1.90209 16.1521 0 18.5 0ZM8 0C10.3479 0 12.25 1.90209 12.25 4.25C12.25 6.59791 10.3479 8.5 8 8.5C5.65209 8.5 3.75 6.59791 3.75 4.25C3.75 1.90209 5.65209 0 8 0ZM18.5 2C17.2567 2 16.25 3.00666 16.25 4.25C16.25 5.49334 17.2567 6.5 18.5 6.5C19.7433 6.5 20.75 5.49334 20.75 4.25C20.75 3.00666 19.7433 2 18.5 2ZM8 2C6.75666 2 5.75 3.00666 5.75 4.25C5.75 5.49334 6.75666 6.5 8 6.5C9.24334 6.5 10.25 5.49334 10.25 4.25C10.25 3.00666 9.24334 2 8 2Z" fill="#000"/>
</svg>
