<svg width="20" height="16" viewBox="0 0 20 16" fill="none" xmlns="http://www.w3.org/2000/svg">
<path d="M18.5 14C19.0523 14 19.5 14.4477 19.5 15C19.5 15.5523 19.0523 16 18.5 16H1.5C0.947715 16 0.5 15.5523 0.5 15C0.5 14.4477 0.947715 14 1.5 14H18.5ZM18.5 7C19.0523 7 19.5 7.44772 19.5 8C19.5 8.55228 19.0523 9 18.5 9H1.5C0.947715 9 0.5 8.55228 0.5 8C0.5 7.44772 0.947715 7 1.5 7H18.5ZM18.5 0C19.0523 0 19.5 0.447715 19.5 1C19.5 1.55228 19.0523 2 18.5 2H1.5C0.947715 2 0.5 1.55228 0.5 1C0.5 0.447715 0.947715 0 1.5 0H18.5Z" fill="#000"/>
</svg>
