<svg width="22" height="25" viewBox="0 0 22 25" fill="none" xmlns="http://www.w3.org/2000/svg">
    <path d="M16 0.5C16.5523 0.5 17 0.947715 17 1.5L17.0007 2.65982C17.8406 2.79344 18.3843 3.00928 18.9305 3.3014C19.9083 3.82432 20.6757 4.59168 21.1986 5.56946C21.6737 6.45778 21.947 7.33957 21.993 9.49907L22 9.5V16.8083L21.9947 17.4184C21.9539 19.6381 21.6797 20.531 21.1986 21.4305C20.6757 22.4083 19.9083 23.1757 18.9305 23.6986C17.9528 24.2215 16.9829 24.5 14.3083 24.5H7.69166L7.08162 24.4947C4.86187 24.4539 3.96902 24.1797 3.06946 23.6986C2.09169 23.1757 1.32432 22.4083 0.801398 21.4305C0.299394 20.4919 0.0226692 19.5605 0.00133443 17.1212L0 10.1917V9.5C0.0530014 7.33957 0.326319 6.45778 0.801398 5.56946C1.32432 4.59168 2.09169 3.82432 3.06946 3.3014C3.61591 3.00916 4.15988 2.79326 5.00031 2.65965L5 1.5C5 0.947715 5.44772 0.5 6 0.5C6.55228 0.5 7 0.947715 7 1.5L6.99907 2.50697C7.21654 2.50233 7.44696 2.5 7.69166 2.5H14.3083C14.5534 2.5 14.7842 2.50234 15.0019 2.50699L15 1.5C15 0.947715 15.4477 0.5 16 0.5ZM19.999 11.5H2L2.00092 17.0913L2.00977 17.6601C2.04865 19.1673 2.2079 19.8196 2.56502 20.4873C2.90155 21.1166 3.38342 21.5985 4.01266 21.935C4.75898 22.3341 5.48594 22.4861 7.40871 22.4991H14.5913L15.1601 22.4902C16.6673 22.4514 17.3196 22.2921 17.9873 21.935C18.6166 21.5985 19.0985 21.1166 19.435 20.4873C19.8341 19.741 19.9861 19.0141 19.9991 17.0913L19.999 11.5ZM16.046 16.5C16.4788 16.5 16.8196 16.5812 17.1047 16.7337C17.3899 16.8863 17.6137 17.1101 17.7663 17.3953C17.9188 17.6804 18 18.0212 18 18.454V18.546C18 18.9788 17.9188 19.3196 17.7663 19.6047C17.6137 19.8899 17.3899 20.1137 17.1047 20.2663C16.8196 20.4188 16.4788 20.5 16.046 20.5H15.954C15.5212 20.5 15.1804 20.4188 14.8953 20.2663C14.6101 20.1137 14.3863 19.8899 14.2337 19.6047C14.0812 19.3196 14 18.9788 14 18.546V18.454C14 18.0212 14.0812 17.6804 14.2337 17.3953C14.3863 17.1101 14.6101 16.8863 14.8953 16.7337C15.1804 16.5812 15.5212 16.5 15.954 16.5H16.046ZM14.5913 4.50092H7.40871L7 4.506V5.5C7 6.05228 6.55228 6.5 6 6.5C5.44772 6.5 5 6.05228 5 5.5L4.99925 4.69251C4.61856 4.78042 4.31722 4.90214 4.01266 5.06502C3.38342 5.40155 2.90155 5.88342 2.56502 6.51266C2.1956 7.20342 2.03791 7.87759 2.00618 9.49864L19.993 9.5L19.9902 9.33985C19.9514 7.83268 19.7921 7.18042 19.435 6.51266C19.0985 5.88342 18.6166 5.40155 17.9873 5.06502C17.6829 4.90218 17.3816 4.78048 17.001 4.69257L17 5.5C17 6.05228 16.5523 6.5 16 6.5C15.4477 6.5 15 6.05228 15 5.5L15.0024 4.5062C14.8717 4.50364 14.7348 4.50189 14.5913 4.50092Z" fill="#000"/>
</svg>
