<svg width="23" height="23" viewBox="0 0 23 23" fill="none" xmlns="http://www.w3.org/2000/svg">
<path d="M13.0603 16.3541C13.3581 16.0936 13.7402 15.95 14.1359 15.95H18.5834C19.7535 15.95 20.45 15.2534 20.45 14.0833V4.75C20.45 3.5799 19.7535 2.88333 18.5834 2.88333H4.58337C3.41326 2.88333 2.7167 3.5799 2.7167 4.75V14.0833C2.7167 15.2534 3.41326 15.95 4.58337 15.95H7.49887C8.31472 16.1853 8.31472 16.1853 8.55003 17.0012V20.3011L13.0603 16.3541ZM7.30753 22.2879C6.75685 21.8749 6.45003 21.1462 6.45003 20.5V18.05H4.58337C2.25347 18.05 0.616699 16.4132 0.616699 14.0833V4.75C0.616699 2.4201 2.25347 0.783333 4.58337 0.783333H18.5834C20.9133 0.783333 22.55 2.4201 22.55 4.75V14.0833C22.55 16.4132 20.9133 18.05 18.5834 18.05H14.3112L9.96572 21.8523C9.11073 22.6909 8.11173 22.8911 7.30753 22.2879Z" fill="#000"/>
</svg>
