<svg width="19" height="5" viewBox="0 0 19 5" fill="none" xmlns="http://www.w3.org/2000/svg">
    <path d="M2.75 0C3.99264 0 5 1.00736 5 2.25C5 3.49264 3.99264 4.5 2.75 4.5C1.50736 4.5 0.5 3.49264 0.5 2.25C0.5 1.00736 1.50736 0 2.75 0ZM9.75 0C10.9926 0 12 1.00736 12 2.25C12 3.49264 10.9926 4.5 9.75 4.5C8.50736 4.5 7.5 3.49264 7.5 2.25C7.5 1.00736 8.50736 0 9.75 0ZM16.75 0C17.9926 0 19 1.00736 19 2.25C19 3.49264 17.9926 4.5 16.75 4.5C15.5074 4.5 14.5 3.49264 14.5 2.25C14.5 1.00736 15.5074 0 16.75 0Z" fill="#000"/>
</svg>
