<svg width="22" height="22" viewBox="0 0 22 22" fill="none" xmlns="http://www.w3.org/2000/svg">
    <path d="M19.1213 1.28868L20.7071 2.87447C21.8787 4.04604 21.8787 5.94554 20.7071 7.11711L18 9.82422L7.1464 20.6779C6.30249 21.5217 5.15794 21.9958 3.96451 21.9958H2.05C0.917816 21.9958 0 21.078 0 19.9458V18.0314C0 16.8378 0.474141 15.6932 1.31811 14.8493L12.172 3.996L12.1716 3.99579L14.8787 1.28868C16.0503 0.11711 17.9497 0.11711 19.1213 1.28868ZM13.5 5.49645L2.73228 16.2635C2.26341 16.7324 2 17.3683 2 18.0314V19.9458C2 19.9734 2.02239 19.9958 2.05 19.9958H3.96451C4.62752 19.9958 5.26339 19.7324 5.73222 19.2636L16.5 8.49645L13.5 5.49645ZM16.2929 2.7029L15 3.99579L18 6.99579L19.2929 5.7029C19.6834 5.31237 19.6834 4.67921 19.2929 4.28868L17.7071 2.7029C17.3166 2.31237 16.6834 2.31237 16.2929 2.7029Z" fill="#000"/>
</svg>
