<svg width="161" height="115" viewBox="0 0 161 115" fill="none" xmlns="http://www.w3.org/2000/svg">
<path d="M49.5339 28.7541C48.6554 29.5315 47.3089 29.3512 46.3419 28.6871C46.0463 28.4842 45.7324 28.3051 45.4 28.15C44.4 27.6833 43.2833 27.45 42.05 27.45C41.4833 27.45 40.8833 27.5333 40.25 27.7C39.6167 27.8333 39.0333 28.0833 38.5 28.45C38 28.7833 37.5667 29.2167 37.2 29.75C36.8667 30.2833 36.7 30.9333 36.7 31.7C36.7 32.7 37.0833 33.5 37.85 34.1C38.65 34.6667 39.75 35.2 41.15 35.7C42.6833 36.2333 44.05 36.8333 45.25 37.5C46.45 38.1333 47.4667 38.8667 48.3 39.7C49.1333 40.5333 49.7667 41.4833 50.2 42.55C50.6333 43.5833 50.85 44.7667 50.85 46.1C50.85 48.2333 50.4 50.05 49.5 51.55C48.6333 53.05 47.5 54.2833 46.1 55.25C44.7 56.1833 43.1333 56.8667 41.4 57.3C39.6667 57.7333 37.95 57.95 36.25 57.95C34.9833 57.95 33.7167 57.8333 32.45 57.6C31.1833 57.3667 29.9667 57.0333 28.8 56.6C27.6333 56.1333 26.55 55.55 25.55 54.85C25.1156 54.5459 24.7095 54.2229 24.3316 53.8811C23.5251 53.1513 23.6747 51.9015 24.5187 51.2153L27.4314 48.8472C28.3509 48.0997 29.7188 48.3341 30.6524 49.0639C31.1216 49.4306 31.6541 49.7593 32.25 50.05C33.6167 50.7167 35 51.05 36.4 51.05C37.1333 51.05 37.8333 50.9833 38.5 50.85C39.2 50.6833 39.8167 50.4333 40.35 50.1C40.8833 49.7333 41.3 49.2833 41.6 48.75C41.9333 48.1833 42.1 47.5167 42.1 46.75C42.1 45.5167 41.6 44.55 40.6 43.85C39.6 43.1167 38.2667 42.4667 36.6 41.9C35.4333 41.5 34.3333 41.05 33.3 40.55C32.3 40.05 31.4167 39.4333 30.65 38.7C29.9167 37.9667 29.3167 37.1 28.85 36.1C28.4167 35.0667 28.2 33.8333 28.2 32.4C28.2 30.6 28.5667 28.9833 29.3 27.55C30.0667 26.0833 31.1 24.85 32.4 23.85C33.7 22.8167 35.2167 22.0333 36.95 21.5C38.6833 20.9333 40.5333 20.65 42.5 20.65C43.5333 20.65 44.5833 20.75 45.65 20.95C46.7167 21.15 47.7333 21.45 48.7 21.85C49.7 22.2167 50.6167 22.6833 51.45 23.25C51.7331 23.4425 52.0007 23.6446 52.253 23.8563C53.0596 24.5331 52.9373 25.7422 52.1488 26.44L49.5339 28.7541Z" fill="#000"/>
<path d="M87.7482 57C87.1236 57 86.6519 56.4339 86.7646 55.8196L91.1739 31.7815C91.1865 31.7131 91.1339 31.65 91.0644 31.65C91.0235 31.65 90.9859 31.6724 90.9664 31.7083L77.5318 56.4768C77.357 56.7992 77.0196 57 76.6528 57H72.2297C71.7477 57 71.3343 56.6562 71.2464 56.1823L66.7161 31.7475C66.7056 31.691 66.6564 31.65 66.5989 31.65C66.5407 31.65 66.491 31.6921 66.4814 31.7495L62.388 56.1653C62.3072 56.6471 61.8902 57 61.4017 57H55.6401C55.0182 57 54.5472 56.4385 54.6553 55.8261L60.5522 22.4261C60.6366 21.9483 61.0518 21.6 61.537 21.6H71.5109C71.9953 21.6 72.4101 21.9472 72.4953 22.4241L76.4277 44.4358C76.4395 44.5019 76.4969 44.55 76.564 44.55C76.6157 44.55 76.663 44.5213 76.6869 44.4755L88.3178 22.1382C88.49 21.8074 88.8319 21.6 89.2048 21.6H99.756C100.378 21.6 100.849 22.1615 100.741 22.7739L94.8439 56.1739C94.7595 56.6517 94.3444 57 93.8591 57H87.7482Z" fill="#000"/>
<path d="M121.254 50.7C122.254 50.6667 123.171 50.5833 124.004 50.45C124.694 50.3174 125.341 50.1216 125.946 49.8625C126.238 49.7374 126.436 49.4651 126.49 49.152L127.352 44.1704C127.458 43.5591 126.987 43 126.367 43H121.853C121.229 43 120.757 42.4345 120.87 41.8205L121.755 36.9705C121.841 36.4953 122.255 36.15 122.738 36.15H135.266C135.886 36.15 136.357 36.7096 136.251 37.3212L133.289 54.3616C133.236 54.6693 133.042 54.9356 132.762 55.0734C131.073 55.9037 129.187 56.5793 127.104 57.1C124.871 57.6667 122.554 57.95 120.154 57.95C117.621 57.95 115.304 57.6 113.204 56.9C111.138 56.1667 109.371 55.1333 107.904 53.8C106.438 52.4667 105.288 50.85 104.454 48.95C103.654 47.05 103.254 44.9167 103.254 42.55C103.254 39.5167 103.771 36.6667 104.804 34C105.871 31.3333 107.338 29.0167 109.204 27.05C111.104 25.05 113.321 23.4833 115.854 22.35C118.421 21.2167 121.204 20.65 124.204 20.65C127.004 20.65 129.538 21.1 131.804 22C133.78 22.7446 135.387 23.809 136.625 25.1932C136.97 25.579 136.91 26.1654 136.525 26.5118L132 30.5879C131.552 30.9918 130.853 30.9045 130.434 30.4696C129.873 29.8863 129.196 29.3798 128.404 28.95C127.271 28.2833 125.821 27.95 124.054 27.95C122.321 27.95 120.704 28.3167 119.204 29.05C117.738 29.7833 116.454 30.7833 115.354 32.05C114.288 33.2833 113.438 34.7333 112.804 36.4C112.204 38.0333 111.904 39.7667 111.904 41.6C111.904 42.9 112.104 44.1167 112.504 45.25C112.904 46.35 113.504 47.3167 114.304 48.15C115.104 48.95 116.088 49.5833 117.254 50.05C118.421 50.4833 119.754 50.7 121.254 50.7Z" fill="#000"/>
<path d="M11.609 87.916L9.462 89.816C8.95533 89.1193 8.21433 88.771 7.239 88.771C6.73233 88.771 6.26367 88.9103 5.833 89.189C5.415 89.455 5.206 89.854 5.206 90.386C5.206 90.7407 5.339 91.032 5.605 91.26C5.88367 91.488 6.31433 91.7033 6.897 91.906C8.12567 92.3367 9.044 92.8623 9.652 93.483C10.2727 94.091 10.583 94.8827 10.583 95.858C10.583 96.6307 10.4183 97.321 10.089 97.929C9.75967 98.5243 9.31633 98.993 8.759 99.335C8.21433 99.677 7.62533 99.9303 6.992 100.095C6.35867 100.272 5.70633 100.361 5.035 100.361C4.03433 100.361 3.07167 100.184 2.147 99.829C1.235 99.4617 0.519333 98.9423 0 98.271L2.337 96.371C2.603 96.7763 2.99567 97.1057 3.515 97.359C4.03433 97.6123 4.56 97.739 5.092 97.739C5.7 97.739 6.213 97.606 6.631 97.34C7.049 97.0613 7.258 96.6497 7.258 96.105C7.258 95.6743 7.08067 95.3197 6.726 95.041C6.384 94.7623 5.86467 94.5027 5.168 94.262C4.15467 93.92 3.36933 93.483 2.812 92.951C2.25467 92.4063 1.976 91.64 1.976 90.652C1.976 89.3093 2.49533 88.2327 3.534 87.422C4.57267 86.5987 5.86467 86.187 7.41 86.187C8.22067 86.187 9.01233 86.3453 9.785 86.662C10.5703 86.966 11.1783 87.384 11.609 87.916Z" fill="#000"/>
<path d="M16.7953 100.266C15.4019 100.266 14.2493 99.886 13.3373 99.126C12.4379 98.366 11.9883 97.359 11.9883 96.105C11.9883 94.4837 12.5139 93.103 13.5653 91.963C14.6293 90.823 16.0289 90.253 17.7643 90.253C19.1829 90.253 20.3483 90.633 21.2603 91.393C22.1723 92.1403 22.6283 93.1473 22.6283 94.414C22.6283 96.0607 22.0963 97.4477 21.0323 98.575C19.9683 99.7023 18.5559 100.266 16.7953 100.266ZM19.6263 94.737C19.6263 94.1543 19.4426 93.6793 19.0753 93.312C18.7206 92.932 18.2393 92.742 17.6313 92.742C16.8459 92.742 16.2063 93.0397 15.7123 93.635C15.2183 94.2303 14.9713 94.946 14.9713 95.782C14.9713 96.3647 15.1486 96.8397 15.5033 97.207C15.8579 97.5743 16.3393 97.758 16.9473 97.758C17.7453 97.758 18.3913 97.4667 18.8853 96.884C19.3793 96.2887 19.6263 95.573 19.6263 94.737Z" fill="#000"/>
<path d="M31.9188 85.465L31.3678 87.897C31.1271 87.7957 30.8611 87.745 30.5698 87.745C29.7211 87.745 29.1828 88.3403 28.9548 89.531L28.7838 90.538H30.9118L30.5128 92.818H28.4228L27.1498 100H24.1668L25.4398 92.818H23.7108L24.1098 90.538H25.7818L25.9718 89.569C26.0858 88.961 26.2378 88.4227 26.4278 87.954C26.6178 87.4853 26.8775 87.042 27.2068 86.624C27.5488 86.1933 27.9921 85.864 28.5368 85.636C29.0941 85.3953 29.7465 85.275 30.4938 85.275C31.0765 85.275 31.5515 85.3383 31.9188 85.465Z" fill="#000"/>
<path d="M31.8924 92.837H30.3344L30.7524 90.538H32.2534L32.6904 88.03H35.6544L35.2174 90.538H37.2314L36.8134 92.837H34.8564L34.1724 96.542C34.1471 96.77 34.1344 96.941 34.1344 97.055C34.1344 97.5997 34.4637 97.872 35.1224 97.872C35.3757 97.872 35.6544 97.834 35.9584 97.758L35.6734 99.943C35.2174 100.133 34.6601 100.228 34.0014 100.228C32.0381 100.228 31.0564 99.4617 31.0564 97.929C31.0564 97.549 31.0944 97.188 31.1704 96.846L31.8924 92.837Z" fill="#000"/>
<path d="M57.4523 100H54.3553L56.1223 90.367H56.0463L50.8213 100H48.5983L46.8123 90.367H46.7363L45.1213 100H42.1573L44.5323 86.548H48.9593L50.5173 95.269H50.5933L55.1343 86.548H59.8273L57.4523 100Z" fill="#000"/>
<path d="M69.9377 96.086H63.1547C63.142 96.1367 63.1357 96.1937 63.1357 96.257C63.1357 96.7637 63.3447 97.1753 63.7627 97.492C64.1807 97.796 64.6683 97.948 65.2257 97.948C66.1123 97.948 66.866 97.6187 67.4867 96.96L69.4057 98.461C68.2657 99.677 66.7837 100.285 64.9597 100.285C63.6043 100.285 62.4897 99.9113 61.6157 99.164C60.7417 98.404 60.3047 97.359 60.3047 96.029C60.3047 94.395 60.843 93.027 61.9197 91.925C62.9963 90.8103 64.358 90.253 66.0047 90.253C67.2713 90.253 68.2847 90.6077 69.0447 91.317C69.8047 92.0137 70.1847 92.989 70.1847 94.243C70.1847 94.813 70.1023 95.4273 69.9377 96.086ZM67.4677 94.224C67.4803 94.1353 67.4867 94.0087 67.4867 93.844C67.4867 93.4133 67.3283 93.065 67.0117 92.799C66.7077 92.5203 66.2897 92.381 65.7577 92.381C65.137 92.381 64.6113 92.5773 64.1807 92.97C63.75 93.35 63.4777 93.768 63.3637 94.224H67.4677Z" fill="#000"/>
<path d="M79.664 91.754L80.709 85.636H83.749L81.203 100H78.41L78.638 98.708H78.581C77.8717 99.7213 76.8014 100.228 75.37 100.228C74.1667 100.228 73.2104 99.8543 72.501 99.107C71.8044 98.347 71.456 97.3653 71.456 96.162C71.456 94.528 71.95 93.141 72.938 92.001C73.9387 90.861 75.1864 90.291 76.681 90.291C78.087 90.291 79.0687 90.7787 79.626 91.754H79.664ZM74.477 95.763C74.477 96.3457 74.648 96.827 74.99 97.207C75.332 97.5743 75.8134 97.758 76.434 97.758C77.194 97.758 77.8274 97.4603 78.334 96.865C78.8534 96.2697 79.113 95.5603 79.113 94.737C79.113 94.1543 78.9294 93.6793 78.562 93.312C78.2074 92.932 77.7324 92.742 77.137 92.742C76.3517 92.742 75.712 93.0333 75.218 93.616C74.724 94.186 74.477 94.9017 74.477 95.763Z" fill="#000"/>
<path d="M86.7748 100H83.7538L85.4068 90.538H88.4658L86.7748 100ZM89.1118 87.365C89.1118 87.8717 88.9408 88.3023 88.5988 88.657C88.2695 89.0117 87.8515 89.189 87.3448 89.189C86.8635 89.189 86.4644 89.0433 86.1478 88.752C85.8438 88.4607 85.6918 88.0997 85.6918 87.669C85.6918 87.1623 85.8628 86.7317 86.2048 86.377C86.5595 86.0223 86.9901 85.845 87.4968 85.845C87.9655 85.845 88.3518 85.9907 88.6558 86.282C88.9598 86.5733 89.1118 86.9343 89.1118 87.365Z" fill="#000"/>
<path d="M98.6867 93.312C98.6867 93.7047 98.6487 94.091 98.5727 94.471L97.9267 98.157C97.8001 98.879 97.7367 99.4933 97.7367 100H95.0387C95.0387 99.7593 95.0641 99.4237 95.1147 98.993H95.0767C94.3801 99.8163 93.4174 100.228 92.1887 100.228C91.4034 100.228 90.7194 100.025 90.1367 99.62C89.5541 99.2147 89.2627 98.5813 89.2627 97.72C89.2627 95.2627 91.4287 94.034 95.7607 94.034C95.7861 93.882 95.7987 93.7363 95.7987 93.597C95.7987 92.8877 95.3047 92.533 94.3167 92.533C93.4427 92.533 92.6131 92.8307 91.8277 93.426L90.5737 91.678C91.1311 91.2347 91.7771 90.8863 92.5117 90.633C93.2591 90.3797 94.0001 90.253 94.7347 90.253C95.9254 90.253 96.8817 90.5127 97.6037 91.032C98.3257 91.5387 98.6867 92.2987 98.6867 93.312ZM95.5897 95.858H95.3237C93.1324 95.858 92.0367 96.314 92.0367 97.226C92.0367 97.872 92.4548 98.195 93.2907 98.195C93.8607 98.195 94.3421 98.0177 94.7347 97.663C95.1401 97.3083 95.3934 96.8587 95.4947 96.314L95.5897 95.858Z" fill="#000"/>
<path d="M112.112 97.606C112.91 97.5807 113.562 97.4477 114.069 97.207L114.506 94.68H111.884L112.359 92.077H117.888L116.653 99.183C115.146 99.9683 113.493 100.361 111.694 100.361C109.756 100.361 108.198 99.8353 107.02 98.784C105.855 97.72 105.272 96.295 105.272 94.509C105.272 92.1783 106.032 90.2087 107.552 88.6C109.072 86.9913 110.966 86.187 113.233 86.187C114.31 86.187 115.279 86.358 116.14 86.7C117.014 87.042 117.692 87.536 118.173 88.182L115.874 90.253C115.279 89.3917 114.379 88.961 113.176 88.961C111.884 88.961 110.788 89.474 109.889 90.5C109.002 91.5133 108.559 92.7293 108.559 94.148C108.559 95.174 108.869 96.01 109.49 96.656C110.123 97.2893 110.997 97.606 112.112 97.606Z" fill="#000"/>
<path d="M123.227 91.925H123.265C123.962 90.8357 124.836 90.291 125.887 90.291C126.115 90.291 126.331 90.3163 126.533 90.367L126.039 93.065C125.824 93.0017 125.571 92.97 125.279 92.97C124.494 92.97 123.899 93.198 123.493 93.654C123.101 94.11 122.86 94.604 122.771 95.136L121.916 100H118.876L120.225 92.495C120.352 91.8617 120.447 91.2093 120.51 90.538H123.398C123.373 90.9307 123.316 91.393 123.227 91.925Z" fill="#000"/>
<path d="M130.888 100.266C129.495 100.266 128.342 99.886 127.43 99.126C126.531 98.366 126.081 97.359 126.081 96.105C126.081 94.4837 126.607 93.103 127.658 91.963C128.722 90.823 130.122 90.253 131.857 90.253C133.276 90.253 134.441 90.633 135.353 91.393C136.265 92.1403 136.721 93.1473 136.721 94.414C136.721 96.0607 136.189 97.4477 135.125 98.575C134.061 99.7023 132.649 100.266 130.888 100.266ZM133.719 94.737C133.719 94.1543 133.535 93.6793 133.168 93.312C132.813 92.932 132.332 92.742 131.724 92.742C130.939 92.742 130.299 93.0397 129.805 93.635C129.311 94.2303 129.064 94.946 129.064 95.782C129.064 96.3647 129.241 96.8397 129.596 97.207C129.951 97.5743 130.432 97.758 131.04 97.758C131.838 97.758 132.484 97.4667 132.978 96.884C133.472 96.2887 133.719 95.573 133.719 94.737Z" fill="#000"/>
<path d="M144.15 98.632H144.093C143.789 99.1133 143.377 99.506 142.858 99.81C142.338 100.101 141.762 100.247 141.129 100.247C140.141 100.247 139.393 99.9747 138.887 99.43C138.38 98.8853 138.127 98.195 138.127 97.359C138.127 96.9663 138.158 96.6243 138.222 96.333L139.229 90.538H142.288L141.376 95.668C141.325 96.0227 141.3 96.2887 141.3 96.466C141.3 97.3147 141.718 97.739 142.554 97.739C143.073 97.739 143.504 97.5427 143.846 97.15C144.2 96.7447 144.435 96.2443 144.549 95.649L145.461 90.538H148.501L147.171 98.043C147.044 98.6763 146.949 99.3287 146.886 100H143.998C144.01 99.886 144.036 99.6517 144.074 99.297C144.112 98.9423 144.137 98.7207 144.15 98.632Z" fill="#000"/>
<path d="M152.647 98.822L151.659 104.56H148.619L151.089 90.538H153.977L153.749 91.849H153.806C154.554 90.823 155.586 90.31 156.903 90.31C158.119 90.31 159.082 90.69 159.791 91.45C160.513 92.21 160.874 93.1853 160.874 94.376C160.874 96.0227 160.374 97.416 159.373 98.556C158.385 99.696 157.138 100.266 155.63 100.266C154.224 100.266 153.243 99.7847 152.685 98.822H152.647ZM157.834 94.775C157.834 94.1923 157.663 93.711 157.321 93.331C156.979 92.951 156.504 92.761 155.896 92.761C155.136 92.761 154.497 93.065 153.977 93.673C153.458 94.2683 153.198 94.9777 153.198 95.801C153.198 96.3837 153.376 96.865 153.73 97.245C154.098 97.6123 154.585 97.796 155.193 97.796C155.979 97.796 156.612 97.511 157.093 96.941C157.587 96.3583 157.834 95.6363 157.834 94.775Z" fill="#000"/>
<path d="M6.15493 110.301C6.0561 111.106 5.74314 111.728 5.21604 112.167C4.69261 112.602 3.99531 112.82 3.12413 112.82C2.17976 112.82 1.42206 112.498 0.851038 111.853C0.28368 111.208 0 110.346 0 109.266V108.534C0 107.826 0.131774 107.204 0.395321 106.668C0.662529 106.131 1.03955 105.72 1.52638 105.434C2.01321 105.145 2.57691 105 3.21747 105C4.06668 105 4.74751 105.227 5.25997 105.68C5.77242 106.129 6.07074 106.753 6.15493 107.551H5.09525C5.00374 106.945 4.80425 106.505 4.49678 106.234C4.19297 105.962 3.76653 105.826 3.21747 105.826C2.54396 105.826 2.01504 106.063 1.6307 106.537C1.25002 107.011 1.05968 107.685 1.05968 108.56V109.297C1.05968 110.123 1.24087 110.78 1.60325 111.268C1.96562 111.756 2.47259 111.999 3.12413 111.999C3.7098 111.999 4.15819 111.874 4.46932 111.623C4.78412 111.369 4.99276 110.928 5.09525 110.301H6.15493Z" fill="#000"/>
<path d="M7.17069 109.835C7.17069 109.281 7.28416 108.783 7.5111 108.34C7.7417 107.898 8.06016 107.556 8.46646 107.316C8.87642 107.075 9.34312 106.955 9.86656 106.955C10.6755 106.955 11.3289 107.222 11.8267 107.755C12.3282 108.288 12.5789 108.997 12.5789 109.882V109.95C12.5789 110.501 12.4673 110.996 12.244 111.435C12.0244 111.871 11.7077 112.21 11.2941 112.454C10.8841 112.698 10.412 112.82 9.87754 112.82C9.07225 112.82 8.41888 112.554 7.9174 112.02C7.41959 111.487 7.17069 110.781 7.17069 109.903V109.835ZM8.19193 109.95C8.19193 110.578 8.34384 111.081 8.64765 111.461C8.95512 111.841 9.36508 112.031 9.87754 112.031C10.3937 112.031 10.8036 111.839 11.1074 111.456C11.4112 111.069 11.5631 110.529 11.5631 109.835C11.5631 109.215 11.4076 108.713 11.0964 108.33C10.789 107.943 10.379 107.75 9.86656 107.75C9.36508 107.75 8.96061 107.94 8.65314 108.319C8.34567 108.699 8.19193 109.243 8.19193 109.95Z" fill="#000"/>
<path d="M13.946 112.716V107.06H16.2631C17.0537 107.06 17.6595 107.192 18.0805 107.457C18.5051 107.718 18.7174 108.103 18.7174 108.612C18.7174 108.873 18.635 109.11 18.4703 109.323C18.3056 109.532 18.0621 109.692 17.74 109.804C18.0988 109.884 18.3861 110.041 18.6021 110.274C18.8217 110.508 18.9315 110.787 18.9315 111.111C18.9315 111.63 18.7302 112.027 18.3275 112.303C17.9285 112.578 17.363 112.716 16.6309 112.716H13.946ZM14.9618 110.233V111.937H16.6419C17.0665 111.937 17.3831 111.862 17.5918 111.712C17.8041 111.562 17.9102 111.351 17.9102 111.079C17.9102 110.515 17.4747 110.233 16.6035 110.233H14.9618ZM14.9618 109.459H16.2741C17.2257 109.459 17.7016 109.194 17.7016 108.664C17.7016 108.135 17.2514 107.861 16.3509 107.844H14.9618V109.459Z" fill="#000"/>
<path d="M25.2951 109.95C25.2951 110.811 25.0882 111.505 24.6746 112.031C24.261 112.557 23.701 112.82 22.9945 112.82C22.2734 112.82 21.7061 112.602 21.2924 112.167V114.89H20.2767V107.06H21.2046L21.254 107.687C21.6676 107.199 22.2423 106.955 22.978 106.955C23.6918 106.955 24.2555 107.211 24.6691 107.723C25.0864 108.236 25.2951 108.948 25.2951 109.861V109.95ZM24.2793 109.841C24.2793 109.203 24.1365 108.699 23.851 108.33C23.5655 107.96 23.1739 107.776 22.6761 107.776C22.0611 107.776 21.5999 108.035 21.2924 108.555V111.257C21.5962 111.773 22.0611 112.031 22.687 112.031C23.1739 112.031 23.56 111.848 23.8455 111.482C24.1347 111.113 24.2793 110.565 24.2793 109.841Z" fill="#000"/>
<path d="M29.0561 112.82C28.2508 112.82 27.5956 112.569 27.0905 112.067C26.5853 111.562 26.3328 110.888 26.3328 110.044V109.867C26.3328 109.306 26.4444 108.806 26.6677 108.366C26.8946 107.924 27.2094 107.579 27.6121 107.331C28.0184 107.081 28.4576 106.955 28.9298 106.955C29.7022 106.955 30.3025 107.197 30.7307 107.682C31.159 108.166 31.3731 108.86 31.3731 109.762V110.165H27.3485C27.3632 110.722 27.5334 111.174 27.8592 111.519C28.1886 111.86 28.6059 112.031 29.111 112.031C29.4697 112.031 29.7735 111.961 30.0224 111.822C30.2713 111.682 30.4891 111.498 30.6758 111.268L31.2963 111.728C30.7984 112.456 30.0517 112.82 29.0561 112.82ZM28.9298 107.75C28.5199 107.75 28.1758 107.892 27.8976 108.178C27.6194 108.461 27.4474 108.858 27.3815 109.37H30.3574V109.297C30.3281 108.806 30.189 108.426 29.9401 108.157C29.6912 107.886 29.3544 107.75 28.9298 107.75Z" fill="#000"/>
<path d="M35.9742 111.435L37.9948 107.06H39.2631V112.716H38.2473V108.602L36.3256 112.716H35.6228L33.6627 108.513V112.716H32.6469V107.06H33.9647L35.9742 111.435Z" fill="#000"/>
<path d="M43.3645 112.82C42.5592 112.82 41.904 112.569 41.3989 112.067C40.8938 111.562 40.6412 110.888 40.6412 110.044V109.867C40.6412 109.306 40.7528 108.806 40.9761 108.366C41.2031 107.924 41.5179 107.579 41.9205 107.331C42.3268 107.081 42.7661 106.955 43.2382 106.955C44.0106 106.955 44.6109 107.197 45.0392 107.682C45.4674 108.166 45.6815 108.86 45.6815 109.762V110.165H41.657C41.6716 110.722 41.8418 111.174 42.1676 111.519C42.497 111.86 42.9143 112.031 43.4194 112.031C43.7782 112.031 44.082 111.961 44.3309 111.822C44.5798 111.682 44.7976 111.498 44.9842 111.268L45.6047 111.728C45.1069 112.456 44.3602 112.82 43.3645 112.82ZM43.2382 107.75C42.8283 107.75 42.4842 107.892 42.206 108.178C41.9278 108.461 41.7558 108.858 41.6899 109.37H44.6658V109.297C44.6365 108.806 44.4974 108.426 44.2485 108.157C43.9996 107.886 43.6628 107.75 43.2382 107.75Z" fill="#000"/>
<path d="M51.7157 112.716H50.6999V110.301H47.9711V112.716H46.9499V107.06H47.9711V109.511H50.6999V107.06H51.7157V112.716Z" fill="#000"/>
<path d="M58.2055 112.716H57.1898V110.301H54.461V112.716H53.4397V107.06H54.461V109.511H57.1898V107.06H58.2055V112.716Z" fill="#000"/>
<path d="M59.5727 109.835C59.5727 109.281 59.6862 108.783 59.9131 108.34C60.1437 107.898 60.4622 107.556 60.8685 107.316C61.2784 107.075 61.7451 106.955 62.2686 106.955C63.0775 106.955 63.7309 107.222 64.2287 107.755C64.7302 108.288 64.9809 108.997 64.9809 109.882V109.95C64.9809 110.501 64.8693 110.996 64.646 111.435C64.4264 111.871 64.1097 112.21 63.6961 112.454C63.2861 112.698 62.814 112.82 62.2795 112.82C61.4743 112.82 60.8209 112.554 60.3194 112.02C59.8216 111.487 59.5727 110.781 59.5727 109.903V109.835ZM60.5939 109.95C60.5939 110.578 60.7458 111.081 61.0497 111.461C61.3571 111.841 61.7671 112.031 62.2795 112.031C62.7957 112.031 63.2056 111.839 63.5094 111.456C63.8132 111.069 63.9651 110.529 63.9651 109.835C63.9651 109.215 63.8096 108.713 63.4985 108.33C63.191 107.943 62.781 107.75 62.2686 107.75C61.7671 107.75 61.3626 107.94 61.0551 108.319C60.7477 108.699 60.5939 109.243 60.5939 109.95Z" fill="#000"/>
<path d="M66.2767 112.209C66.2767 112.041 66.3279 111.902 66.4304 111.79C66.5366 111.679 66.694 111.623 66.9026 111.623C67.1112 111.623 67.2686 111.679 67.3748 111.79C67.4846 111.902 67.5395 112.041 67.5395 112.209C67.5395 112.369 67.4846 112.503 67.3748 112.611C67.2686 112.719 67.1112 112.773 66.9026 112.773C66.694 112.773 66.5366 112.719 66.4304 112.611C66.3279 112.503 66.2767 112.369 66.2767 112.209Z" fill="#000"/>
<path d="M78.2132 105.105V112.716H77.159V105.93H74.2929L74.1502 108.947C74.0953 109.957 73.9854 110.717 73.8207 111.226C73.6597 111.735 73.4217 112.109 73.1069 112.35C72.7922 112.587 72.3712 112.709 71.8441 112.716H71.4982V111.895L71.7178 111.884C72.0583 111.86 72.32 111.756 72.503 111.571C72.686 111.383 72.8251 111.085 72.9203 110.677C73.0154 110.269 73.0832 109.642 73.1234 108.795L73.2881 105.105H78.2132Z" fill="#000"/>
<path d="M82.4354 112.82C81.6301 112.82 80.9749 112.569 80.4698 112.067C79.9647 111.562 79.7121 110.888 79.7121 110.044V109.867C79.7121 109.306 79.8237 108.806 80.047 108.366C80.274 107.924 80.5888 107.579 80.9914 107.331C81.3977 107.081 81.837 106.955 82.3091 106.955C83.0815 106.955 83.6818 107.197 84.1101 107.682C84.5383 108.166 84.7524 108.86 84.7524 109.762V110.165H80.7279C80.7425 110.722 80.9127 111.174 81.2385 111.519C81.5679 111.86 81.9852 112.031 82.4903 112.031C82.8491 112.031 83.1529 111.961 83.4018 111.822C83.6507 111.682 83.8685 111.498 84.0551 111.268L84.6756 111.728C84.1778 112.456 83.4311 112.82 82.4354 112.82ZM82.3091 107.75C81.8992 107.75 81.5551 107.892 81.2769 108.178C80.9987 108.461 80.8267 108.858 80.7608 109.37H83.7367V109.297C83.7074 108.806 83.5683 108.426 83.3194 108.157C83.0705 107.886 82.7337 107.75 82.3091 107.75Z" fill="#000"/>
<path d="M89.7708 107.859H87.031V112.716H86.0098V107.06H89.7708V107.859Z" fill="#000"/>
<path d="M92.5051 110.306H91.7639V112.716H90.7427V107.06H91.7639V109.454H92.4283L94.4268 107.06H95.6567L93.3068 109.778L95.8544 112.716H94.5641L92.5051 110.306Z" fill="#000"/>
<path d="M96.3376 109.835C96.3376 109.281 96.451 108.783 96.678 108.34C96.9086 107.898 97.227 107.556 97.6333 107.316C98.0433 107.075 98.51 106.955 99.0334 106.955C99.8424 106.955 100.496 107.222 100.994 107.755C101.495 108.288 101.746 108.997 101.746 109.882V109.95C101.746 110.501 101.634 110.996 101.411 111.435C101.191 111.871 100.875 112.21 100.461 112.454C100.051 112.698 99.5788 112.82 99.0444 112.82C98.2391 112.82 97.5857 112.554 97.0843 112.02C96.5865 111.487 96.3376 110.781 96.3376 109.903V109.835ZM97.3588 109.95C97.3588 110.578 97.5107 111.081 97.8145 111.461C98.122 111.841 98.532 112.031 99.0444 112.031C99.5605 112.031 99.9705 111.839 100.274 111.456C100.578 111.069 100.73 110.529 100.73 109.835C100.73 109.215 100.574 108.713 100.263 108.33C99.9558 107.943 99.5459 107.75 99.0334 107.75C98.532 107.75 98.1275 107.94 97.82 108.319C97.5125 108.699 97.3588 109.243 97.3588 109.95Z" fill="#000"/>
<path d="M103.042 112.209C103.042 112.041 103.093 111.902 103.195 111.79C103.301 111.679 103.459 111.623 103.667 111.623C103.876 111.623 104.034 111.679 104.14 111.79C104.249 111.902 104.304 112.041 104.304 112.209C104.304 112.369 104.249 112.503 104.14 112.611C104.034 112.719 103.876 112.773 103.667 112.773C103.459 112.773 103.301 112.719 103.195 112.611C103.093 112.503 103.042 112.369 103.042 112.209Z" fill="#000"/>
<path d="M116.126 114.582H115.077V112.716H109.339V114.587H108.285L108.28 111.895H108.933C109.277 111.526 109.55 111.031 109.751 110.41C109.956 109.787 110.084 109.104 110.135 108.361L110.311 105.105H115.093V111.895H116.137L116.126 114.582ZM110.135 111.895H114.034V105.93H111.327L111.212 108.168C111.164 109.043 111.041 109.788 110.844 110.405C110.65 111.022 110.414 111.519 110.135 111.895Z" fill="#000"/>
<path d="M116.96 109.835C116.96 109.281 117.074 108.783 117.301 108.34C117.531 107.898 117.85 107.556 118.256 107.316C118.666 107.075 119.133 106.955 119.656 106.955C120.465 106.955 121.118 107.222 121.616 107.755C122.118 108.288 122.368 108.997 122.368 109.882V109.95C122.368 110.501 122.257 110.996 122.033 111.435C121.814 111.871 121.497 112.21 121.084 112.454C120.674 112.698 120.201 112.82 119.667 112.82C118.862 112.82 118.208 112.554 117.707 112.02C117.209 111.487 116.96 110.781 116.96 109.903V109.835ZM117.981 109.95C117.981 110.578 118.133 111.081 118.437 111.461C118.745 111.841 119.155 112.031 119.667 112.031C120.183 112.031 120.593 111.839 120.897 111.456C121.201 111.069 121.353 110.529 121.353 109.835C121.353 109.215 121.197 108.713 120.886 108.33C120.578 107.943 120.168 107.75 119.656 107.75C119.155 107.75 118.75 107.94 118.443 108.319C118.135 108.699 117.981 109.243 117.981 109.95Z" fill="#000"/>
<path d="M126.025 112.031C126.387 112.031 126.704 111.926 126.975 111.717C127.246 111.508 127.396 111.247 127.425 110.933H128.386C128.368 111.257 128.251 111.566 128.035 111.858C127.819 112.151 127.529 112.385 127.167 112.559C126.808 112.733 126.428 112.82 126.025 112.82C125.216 112.82 124.572 112.564 124.092 112.052C123.617 111.536 123.379 110.832 123.379 109.94V109.778C123.379 109.227 123.485 108.738 123.697 108.309C123.909 107.88 124.213 107.547 124.609 107.311C125.007 107.074 125.478 106.955 126.02 106.955C126.686 106.955 127.238 107.145 127.678 107.525C128.121 107.905 128.357 108.398 128.386 109.004H127.425C127.396 108.638 127.249 108.339 126.986 108.105C126.726 107.868 126.404 107.75 126.02 107.75C125.503 107.75 125.103 107.927 124.817 108.283C124.535 108.635 124.394 109.145 124.394 109.814V109.997C124.394 110.649 124.535 111.151 124.817 111.503C125.099 111.855 125.502 112.031 126.025 112.031Z" fill="#000"/>
<path d="M133.942 107.844H131.949V112.716H130.934V107.844H128.979V107.06H133.942V107.844Z" fill="#000"/>
<path d="M136.94 111.299L138.324 107.06H139.411L137.023 113.589C136.653 114.53 136.065 115 135.26 115L135.068 114.984L134.689 114.916V114.132L134.964 114.153C135.308 114.153 135.575 114.087 135.765 113.955C135.959 113.822 136.119 113.58 136.243 113.228L136.468 112.653L134.349 107.06H135.458L136.94 111.299Z" fill="#000"/>
<path d="M145.182 112.716H144.166V107.859H141.432V112.716H140.41V107.06H145.182V112.716Z" fill="#000"/>
<path d="M151.666 112.716H150.65V110.301H147.921V112.716H146.9V107.06H147.921V109.511H150.65V107.06H151.666V112.716Z" fill="#000"/>
<path d="M153.033 109.835C153.033 109.281 153.147 108.783 153.374 108.34C153.604 107.898 153.923 107.556 154.329 107.316C154.739 107.075 155.206 106.955 155.729 106.955C156.538 106.955 157.191 107.222 157.689 107.755C158.191 108.288 158.441 108.997 158.441 109.882V109.95C158.441 110.501 158.33 110.996 158.106 111.435C157.887 111.871 157.57 112.21 157.157 112.454C156.747 112.698 156.274 112.82 155.74 112.82C154.935 112.82 154.281 112.554 153.78 112.02C153.282 111.487 153.033 110.781 153.033 109.903V109.835ZM154.054 109.95C154.054 110.578 154.206 111.081 154.51 111.461C154.818 111.841 155.228 112.031 155.74 112.031C156.256 112.031 156.666 111.839 156.97 111.456C157.274 111.069 157.426 110.529 157.426 109.835C157.426 109.215 157.27 108.713 156.959 108.33C156.651 107.943 156.242 107.75 155.729 107.75C155.228 107.75 154.823 107.94 154.516 108.319C154.208 108.699 154.054 109.243 154.054 109.95Z" fill="#000"/>
<path d="M159.737 112.209C159.737 112.041 159.788 111.902 159.891 111.79C159.997 111.679 160.154 111.623 160.363 111.623C160.572 111.623 160.729 111.679 160.835 111.79C160.945 111.902 161 112.041 161 112.209C161 112.369 160.945 112.503 160.835 112.611C160.729 112.719 160.572 112.773 160.363 112.773C160.154 112.773 159.997 112.719 159.891 112.611C159.788 112.503 159.737 112.369 159.737 112.209Z" fill="#000"/>
<path fill-rule="evenodd" clip-rule="evenodd" d="M80.5 80C123.302 80 158 62.0914 158 40C158 17.9086 123.302 0 80.5 0C37.6979 0 3 17.9086 3 40C3 62.0914 37.6979 80 80.5 80ZM80.5 77C118.884 77 150 60.4345 150 40C150 19.5655 118.884 3 80.5 3C42.1162 3 11 19.5655 11 40C11 60.4345 42.1162 77 80.5 77Z" fill="#000"/>
</svg>
