<svg width="24" height="24" viewBox="0 0 24 24" fill="none" xmlns="http://www.w3.org/2000/svg">
    <path d="M12 0C18.6274 0 24 5.37258 24 12C24 18.6274 18.6274 24 12 24C5.37258 24 0 18.6274 0 12C0 5.37258 5.37258 0 12 0ZM12 2C6.47715 2 2 6.47715 2 12C2 17.5228 6.47715 22 12 22C17.5228 22 22 17.5228 22 12C22 6.47715 17.5228 2 12 2ZM13.6731 6.5C15.6958 6.5 17.3355 8.13968 17.3355 10.1623C17.3355 12.185 15.6958 13.8247 13.6731 13.8247L11.215 13.824V15.227L12.8518 15.2273C13.3037 15.2273 13.67 15.5936 13.67 16.0455C13.67 16.4973 13.3037 16.8636 12.8518 16.8636L11.215 16.863L11.2155 17.6429C11.2155 18.1162 10.8317 18.5 10.3583 18.5H10.2181C9.74466 18.5 9.36091 18.1162 9.36091 17.6429L9.36 16.863L8.48818 16.8636C8.03631 16.8636 7.67 16.4973 7.67 16.0455C7.67 15.5936 8.03631 15.2273 8.48818 15.2273L9.36 15.227V13.824L8.52714 13.8247C8.05376 13.8247 7.67 13.4409 7.67 12.9675V12.8117C7.67 12.3383 8.05376 11.9545 8.52714 11.9545L9.36 11.954L9.36091 7.35714C9.36091 6.88376 9.74466 6.5 10.2181 6.5H13.6731ZM13.709 8.21429H11.2155V11.9545H13.709C14.7418 11.9545 15.5791 11.1173 15.5791 10.0844C15.5791 9.05157 14.7418 8.21429 13.709 8.21429Z" fill="#000"/>
</svg>
