<svg width="24" height="18" viewBox="0 0 24 18" fill="none" xmlns="http://www.w3.org/2000/svg">
    <path d="M0 8.78049C0 9.7522 0.78439 10.5366 1.7561 10.5366C2.7278 10.5366 3.5122 9.7522 3.5122 8.78049C3.5122 7.80878 2.7278 7.02439 1.7561 7.02439C0.78439 7.02439 0 7.80878 0 8.78049ZM0 1.7561C0 2.72781 0.78439 3.5122 1.7561 3.5122C2.7278 3.5122 3.5122 2.72781 3.5122 1.7561C3.5122 0.78439 2.7278 0 1.7561 0C0.78439 0 0 0.78439 0 1.7561ZM0 15.8049C0 16.7688 0.792224 17.561 1.7561 17.561C2.71997 17.561 3.5122 16.7688 3.5122 15.8049C3.5122 14.841 2.73317 14.0488 1.7561 14.0488C0.779021 14.0488 0 14.841 0 15.8049ZM24 15.8049C24 15.1583 23.4758 14.6341 22.8293 14.6341H6.43902C5.79245 14.6341 5.26829 15.1583 5.26829 15.8049C5.26829 16.4515 5.79245 16.9756 6.43902 16.9756H22.8293C23.4758 16.9756 24 16.4515 24 15.8049ZM24 8.78049C24 8.13391 23.4758 7.60976 22.8293 7.60976H6.43902C5.79245 7.60976 5.26829 8.13391 5.26829 8.78049C5.26829 9.42707 5.79245 9.95122 6.43902 9.95122H22.8293C23.4758 9.95122 24 9.42707 24 8.78049ZM6.43902 2.92683H22.8293C23.4758 2.92683 24 2.40267 24 1.7561C24 1.10952 23.4758 0.585366 22.8293 0.585366H6.43902C5.79245 0.585366 5.26829 1.10952 5.26829 1.7561C5.26829 2.40267 5.79245 2.92683 6.43902 2.92683Z" fill="#000"/>
</svg>
